<?xml version="1.0" encoding="utf-8"?>
<!-- Generator: Adobe Illustrator 15.0.0, SVG Export Plug-In . SVG Version: 6.00 Build 0)  -->
<!DOCTYPE svg PUBLIC "-//W3C//DTD SVG 1.1//EN" "http://www.w3.org/Graphics/SVG/1.1/DTD/svg11.dtd">
<svg version="1.1" id="Layer_1" xmlns="http://www.w3.org/2000/svg" xmlns:xlink="http://www.w3.org/1999/xlink" x="0px" y="0px"
	 width="100px" height="62.786px" viewBox="0 -13.143 100 62.786" enable-background="new 0 -13.143 100 62.786"
	 xml:space="preserve">
<g>
	<g>
		<path fill="#3C2B21" d="M50.001,23.75c-1.105,0-2,0.896-2,2v15.999c0,1.104,0.895,2,2,2c1.104,0,2-0.896,2-2V25.75
			C52.001,24.644,51.104,23.75,50.001,23.75z M57.999,19.75c-1.104,0-1.999,0.896-1.999,2v15.999c0,1.105,0.896,2,1.999,2
			c1.104,0,2-0.895,2-2V21.75C59.999,20.646,59.104,19.75,57.999,19.75z M42.001,19.75c-1.104,0-1.999,0.896-1.999,2v15.999
			c0,1.105,0.896,2,1.999,2c1.105,0,2-0.895,2-2V21.75C44.001,20.646,43.106,19.75,42.001,19.75z M72.997,4.751
			c0-0.754-0.078-1.49-0.211-2.207c-0.576,0.132-1.173,0.208-1.788,0.208c-4.418,0-7.999-3.581-7.999-7.999
			c0-0.615,0.076-1.213,0.207-1.788c-0.716-0.134-1.451-0.212-2.207-0.212c-5.24,0-9.685,3.365-11.318,8.047
			c-1.766-0.672-3.678-1.047-5.68-1.047c-8.835,0-15.998,7.162-15.998,15.997c0,5.919,3.223,11.074,8,13.842v-4.917
			c-2.45-2.197-4-5.375-4-8.925c0-6.626,5.371-11.998,11.998-11.998c5.691,0,10.435,3.973,11.665,9.29
			c1.25-0.811,2.732-1.291,4.333-1.291c4.418,0,7.999,3.581,7.999,7.999c0,2.959-1.609,5.537-3.999,6.92v4.382
			c4.655-1.649,7.999-6.078,7.999-11.302c0-2.562-0.811-4.933-2.18-6.882C71.786,10.73,72.997,7.886,72.997,4.751z M67.005,10.023
			c-1.973-1.424-4.388-2.271-7.006-2.271c-0.696,0-1.369,0.092-2.033,0.205c-1.155-2.068-2.762-3.849-4.679-5.221
			c0.75-2.865,3.023-5.111,5.924-5.775c0.904,4.855,4.727,8.676,9.579,9.58C68.488,7.855,67.861,9.042,67.005,10.023z"/>
	</g>
</g>
</svg>
